<svg width="35" height="35" viewBox="0 0 35 35" fill="none" xmlns="http://www.w3.org/2000/svg">
<path d="M25.3846 7.71045V13.6872" stroke="#FBFBFB" stroke-width="1.5" stroke-linecap="round" stroke-linejoin="round"/>
<path d="M7.50781 12.8096L9.20465 13.1033L9.99026 22.4628C10.0531 23.2272 10.6918 23.8138 11.4587 23.8113H20.3581C21.0899 23.8129 21.7107 23.2745 21.8143 22.5501L22.5885 17.2001C22.675 16.6022 22.2597 16.0474 21.6626 15.961C21.6104 15.9536 9.47713 15.9495 9.47713 15.9495" stroke="#FBFBFB" stroke-width="1.5" stroke-linecap="round" stroke-linejoin="round"/>
<path d="M16.7871 18.9645H19.0493" stroke="#FBFBFB" stroke-width="1.5" stroke-linecap="round" stroke-linejoin="round"/>
<path fill-rule="evenodd" clip-rule="evenodd" d="M11.1 26.6392C11.3456 26.6392 11.5438 26.8382 11.5438 27.0829C11.5438 27.3285 11.3456 27.5276 11.1 27.5276C10.8545 27.5276 10.6562 27.3285 10.6562 27.0829C10.6562 26.8382 10.8545 26.6392 11.1 26.6392Z" fill="#FBFBFB" stroke="#FBFBFB" stroke-width="1.5" stroke-linecap="round" stroke-linejoin="round"/>
<path fill-rule="evenodd" clip-rule="evenodd" d="M20.3032 26.6392C20.5487 26.6392 20.7478 26.8382 20.7478 27.0829C20.7478 27.3285 20.5487 27.5276 20.3032 27.5276C20.0576 27.5276 19.8594 27.3285 19.8594 27.0829C19.8594 26.8382 20.0576 26.6392 20.3032 26.6392Z" fill="#FBFBFB" stroke="#FBFBFB" stroke-width="1.5" stroke-linecap="round" stroke-linejoin="round"/>
<rect x="1.25" y="1.25" width="32.5" height="32.5" rx="4.75" stroke="#FBFBFB" stroke-width="1.5"/>
<path d="M28.377 10.6991H22.3945" stroke="#FBFBFB" stroke-width="1.5" stroke-linecap="round" stroke-linejoin="round"/>
</svg>
