<svg width="27" height="25" viewBox="0 0 27 25" fill="none" xmlns="http://www.w3.org/2000/svg">
<path d="M8.69911 16.1623H8.70035C8.70138 16.1623 8.70241 16.1621 8.70344 16.1621H23.0449C23.398 16.1621 23.7084 15.9452 23.8054 15.6309L26.9695 5.37701C27.0377 5.15595 26.9899 4.91829 26.8406 4.7348C26.691 4.55132 26.4572 4.44336 26.209 4.44336H6.87483L6.30938 2.08721C6.22884 1.75209 5.9079 1.51367 5.53711 1.51367H0.791016C0.354103 1.51367 0 1.84155 0 2.24609C0 2.65064 0.354103 2.97852 0.791016 2.97852H4.90265C5.00276 3.39603 7.60858 14.2538 7.75854 14.8785C6.91788 15.2168 6.32812 15.9929 6.32812 16.8945C6.32812 18.1061 7.3927 19.0918 8.70117 19.0918H23.0449C23.4818 19.0918 23.8359 18.7639 23.8359 18.3594C23.8359 17.9548 23.4818 17.627 23.0449 17.627H8.70117C8.26508 17.627 7.91016 17.2983 7.91016 16.8945C7.91016 16.4913 8.26385 16.1633 8.69911 16.1623ZM25.1603 5.9082L22.4482 14.6973H9.33563L7.22626 5.9082H25.1603Z" fill="black"/>
<path d="M7.91016 21.2891C7.91016 22.5006 8.97473 23.4863 10.2832 23.4863C11.5917 23.4863 12.6562 22.5006 12.6562 21.2891C12.6562 20.0775 11.5917 19.0918 10.2832 19.0918C8.97473 19.0918 7.91016 20.0775 7.91016 21.2891ZM10.2832 20.5566C10.7193 20.5566 11.0742 20.8853 11.0742 21.2891C11.0742 21.6928 10.7193 22.0215 10.2832 22.0215C9.84711 22.0215 9.49219 21.6928 9.49219 21.2891C9.49219 20.8853 9.84711 20.5566 10.2832 20.5566Z" fill="black"/>
<path d="M19.0898 21.2891C19.0898 22.5006 20.1544 23.4863 21.4629 23.4863C22.7714 23.4863 23.8359 22.5006 23.8359 21.2891C23.8359 20.0775 22.7714 19.0918 21.4629 19.0918C20.1544 19.0918 19.0898 20.0775 19.0898 21.2891ZM21.4629 20.5566C21.899 20.5566 22.2539 20.8853 22.2539 21.2891C22.2539 21.6928 21.899 22.0215 21.4629 22.0215C21.0268 22.0215 20.6719 21.6928 20.6719 21.2891C20.6719 20.8853 21.0268 20.5566 21.4629 20.5566Z" fill="black"/>
</svg>
