<svg width="14" height="14" viewBox="0 0 14 14" fill="none" xmlns="http://www.w3.org/2000/svg">
<path d="M10.9671 5.62842C10.9671 5.62842 10.6729 9.27654 10.5023 10.8133C10.4211 11.5472 9.96769 11.9773 9.22506 11.9908C7.81186 12.0163 6.39702 12.0179 4.98436 11.9881C4.2699 11.9735 3.82411 11.538 3.74448 10.817C3.57277 9.26679 3.28027 5.62842 3.28027 5.62842" stroke="#FBFBFB" stroke-width="1.5" stroke-linecap="round" stroke-linejoin="round"/>
<path d="M11.7168 3.87972H2.53125" stroke="#FBFBFB" stroke-width="1.5" stroke-linecap="round" stroke-linejoin="round"/>
<path d="M9.94657 3.87962C9.52136 3.87962 9.1552 3.579 9.07178 3.16245L8.94016 2.50379C8.85891 2.19991 8.58374 1.98975 8.27011 1.98975H5.97724C5.66361 1.98975 5.38845 2.19991 5.3072 2.50379L5.17557 3.16245C5.09216 3.579 4.72599 3.87962 4.30078 3.87962" stroke="#FBFBFB" stroke-width="1.5" stroke-linecap="round" stroke-linejoin="round"/>
</svg>
