<svg width="26" height="26" viewBox="0 0 26 26" fill="none" xmlns="http://www.w3.org/2000/svg">
<path d="M0 4C0 1.79086 1.79086 0 4 0H21.9987C24.2078 0 25.9987 1.79086 25.9987 4V22C25.9987 24.2091 24.2078 26 21.9987 26H4C1.79086 26 0 24.2091 0 22V4Z" fill="#272727"/>
<path d="M12.4976 6.02881H9.71854C7.43301 6.02881 6 7.64392 6 9.93044V16.0986C6 18.3851 7.42632 20.0002 9.71854 20.0002H16.2771C18.5701 20.0002 19.9964 18.3851 19.9964 16.0986V13.1102" stroke="#FBFBFB" stroke-width="1.2" stroke-linecap="round" stroke-linejoin="round"/>
<path fill-rule="evenodd" clip-rule="evenodd" d="M10.5155 12.0617L16.0699 6.51747C16.7618 5.82751 17.8834 5.82751 18.5754 6.51747L19.48 7.42036C20.1719 8.11106 20.1719 9.23133 19.48 9.92129L13.8988 15.4922C13.5963 15.7941 13.186 15.964 12.7579 15.964H9.97363L10.0435 13.1597C10.0539 12.7472 10.2226 12.354 10.5155 12.0617Z" stroke="#FBFBFB" stroke-width="1.2" stroke-linecap="round" stroke-linejoin="round"/>
<path d="M15.2266 7.37402L18.6203 10.7615" stroke="#FBFBFB" stroke-width="1.5" stroke-linecap="round" stroke-linejoin="round"/>
</svg>
