<svg width="25" height="16" viewBox="0 0 25 16" fill="none" xmlns="http://www.w3.org/2000/svg">
<path d="M1.65991 8L2.93921 9.43281C8.21265 15.3391 16.7917 15.3391 22.0652 9.43281L23.3396 8L22.0603 6.56719C16.7869 0.660938 8.20776 0.660938 2.93433 6.56719L1.65991 8ZM12.4998 14.9016C8.79858 14.9016 5.09741 13.3211 2.28003 10.1656L0.673584 8.36641C0.49292 8.16406 0.49292 7.83594 0.673584 7.62813L2.28003 5.82891C7.9148 -0.482031 17.0847 -0.482031 22.7195 5.82891L24.3259 7.62813C24.5066 7.83047 24.5066 8.1586 24.3259 8.36641L22.7195 10.1656C19.9021 13.3211 16.2009 14.9016 12.4998 14.9016Z" fill="black" stroke="black" stroke-width="0.3"/>
<path d="M12.5 4.03516C10.5469 4.03516 8.95996 5.8125 8.95996 8C8.95996 10.1875 10.5469 11.9648 12.5 11.9648C14.4531 11.9648 16.04 10.1875 16.04 8C16.04 5.8125 14.4531 4.03516 12.5 4.03516ZM12.5 13.0039C10.0342 13.0039 8.03223 10.7562 8.03223 8C8.03223 5.23828 10.0391 2.99609 12.5 2.99609C14.9609 2.99609 16.9678 5.24375 16.9678 8C16.9678 10.7617 14.9658 13.0039 12.5 13.0039Z" fill="black" stroke="black" stroke-width="0.3"/>
</svg>
