<svg width="17" height="30" viewBox="0 0 17 30" fill="none" xmlns="http://www.w3.org/2000/svg">
<path d="M16.15 5H11.05C10.1111 5 9.35 5.74619 9.35 6.66667V11.6667H16.15C16.3434 11.6625 16.5267 11.7506 16.6417 11.9031C16.7566 12.0556 16.7888 12.2533 16.728 12.4333L15.47 16.1C15.3541 16.4365 15.0333 16.664 14.671 16.6667H9.35V29.1667C9.35 29.6269 8.96944 30 8.5 30H4.25C3.78056 30 3.4 29.6269 3.4 29.1667V16.6667H0.85C0.380558 16.6667 0 16.2936 0 15.8333V12.5C0 12.0398 0.380558 11.6667 0.85 11.6667H3.4V6.66667C3.4 2.98477 6.44446 0 10.2 0H16.15C16.6194 0 17 0.373096 17 0.833333V4.16667C17 4.6269 16.6194 5 16.15 5Z" fill="#707070"/>
</svg>
