<svg width="24" height="23" viewBox="0 0 24 23" fill="none" xmlns="http://www.w3.org/2000/svg">
<path d="M10.8891 22.1292C11.1876 22.4401 11.5889 22.6135 12.0098 22.6135C12.4258 22.6135 12.8369 22.435 13.1305 22.1292L21.925 12.9683C23.261 11.5766 23.9951 9.72603 24 7.76335C24 5.79557 23.2659 3.94504 21.9299 2.55332C20.5938 1.1616 18.8222 0.396914 16.9331 0.396914C15.0783 0.396914 13.3312 1.13611 12.0049 2.48195C10.6737 1.13101 8.9217 0.386719 7.06199 0.386719C5.17781 0.386719 3.4062 1.1514 2.07015 2.53802C0.734095 3.92974 0 5.78028 0 7.74806C0 9.71074 0.738989 11.5613 2.07504 12.953L10.8891 22.1292ZM2.9217 3.42506C4.02773 2.27293 5.50082 1.6357 7.06688 1.6357C8.63295 1.6357 10.1109 2.27293 11.2219 3.43015L11.584 3.8074C11.6966 3.92465 11.8483 3.99092 12.0098 3.99092C12.1664 3.99092 12.323 3.92465 12.4356 3.8074L12.7879 3.44035C13.8989 2.28313 15.3719 1.6459 16.9429 1.6459C18.509 1.6459 19.9821 2.28313 21.0881 3.43525C22.199 4.59247 22.8059 6.12693 22.8059 7.75825C22.8059 9.38957 22.1941 10.924 21.0832 12.0813L12.2838 21.2472C12.1419 21.3951 11.8825 21.3951 11.7357 21.2472L2.92659 12.0711C1.81566 10.9138 1.20392 9.37938 1.20392 7.74806C1.20392 6.11674 1.81566 4.58227 2.9217 3.42506Z" fill="black" stroke="black" stroke-width="0.3"/>
</svg>
