<svg width="33" height="30" viewBox="0 0 33 30" fill="none" xmlns="http://www.w3.org/2000/svg">
<path fill-rule="evenodd" clip-rule="evenodd" d="M24.1092 0H9.88694C4.97774 0 0.998047 3.73096 0.998047 8.33333V21.6667C0.998047 26.269 4.97774 30 9.88694 30H24.1092C29.0184 30 32.998 26.269 32.998 21.6667V8.33333C32.998 3.73096 29.0184 0 24.1092 0ZM29.888 21.6666C29.8783 24.6544 27.2972 27.0741 24.1103 27.0833H9.88804C6.70111 27.0741 4.12002 24.6544 4.11026 21.6666V8.33338C4.12002 5.34566 6.70111 2.9259 9.88804 2.91675H24.1103C27.2972 2.9259 29.8783 5.34566 29.888 8.33338V21.6666ZM25.4419 8.74999C26.4237 8.74999 27.2196 8.00379 27.2196 7.08331C27.2196 6.16282 26.4237 5.41663 25.4419 5.41663C24.46 5.41663 23.6641 6.16282 23.6641 7.08331C23.6641 8.00379 24.46 8.74999 25.4419 8.74999ZM16.9968 7.50026C12.5785 7.50026 8.99683 10.8581 8.99683 15.0002C8.99683 19.1423 12.5785 22.5001 16.9968 22.5001C21.4151 22.5001 24.9968 19.1423 24.9968 15.0002C25.0015 13.0097 24.1602 11.0995 22.6589 9.69204C21.1575 8.28457 19.12 7.49582 16.9968 7.50026ZM12.109 14.9998C12.109 17.5311 14.2979 19.5832 16.998 19.5832C19.698 19.5832 21.8869 17.5311 21.8869 14.9998C21.8869 12.4685 19.698 10.4165 16.998 10.4165C14.2979 10.4165 12.109 12.4685 12.109 14.9998Z" fill="#707070"/>
</svg>
