<svg width="36" height="36" viewBox="0 0 36 36" fill="none" xmlns="http://www.w3.org/2000/svg">
<path d="M31.4201 12.4577C31.405 11.3216 31.1923 10.1968 30.7916 9.13368C30.4441 8.23691 29.9134 7.42248 29.2334 6.74243C28.5533 6.06237 27.7389 5.53166 26.8421 5.18418C25.7926 4.79022 24.6839 4.57719 23.5631 4.55418C22.1201 4.48968 21.6626 4.47168 17.9996 4.47168C14.3366 4.47168 13.8671 4.47168 12.4346 4.55418C11.3144 4.57736 10.2061 4.79038 9.15712 5.18418C8.2602 5.53141 7.44565 6.06205 6.76557 6.74213C6.08548 7.42221 5.55485 8.23677 5.20762 9.13368C4.81286 10.1824 4.6003 11.2908 4.57912 12.4112C4.51462 13.8557 4.49512 14.3132 4.49512 17.9762C4.49512 21.6392 4.49512 22.1072 4.57912 23.5412C4.60162 24.6632 4.81312 25.7702 5.20762 26.8217C5.55543 27.7183 6.08646 28.5325 6.76677 29.2123C7.44708 29.8921 8.26171 30.4225 9.15862 30.7697C10.2048 31.1795 11.3132 31.4077 12.4361 31.4447C13.8806 31.5092 14.3381 31.5287 18.0011 31.5287C21.6641 31.5287 22.1336 31.5287 23.5661 31.4447C24.6868 31.4226 25.7957 31.2101 26.8451 30.8162C27.7417 30.4683 28.5559 29.9374 29.2359 29.2574C29.9159 28.5774 30.4467 27.7632 30.7946 26.8667C31.1891 25.8167 31.4006 24.7097 31.4231 23.5862C31.4876 22.1432 31.5071 21.6857 31.5071 18.0212C31.5041 14.3582 31.5041 13.8932 31.4201 12.4577ZM17.9906 24.9032C14.1596 24.9032 11.0561 21.7997 11.0561 17.9687C11.0561 14.1377 14.1596 11.0342 17.9906 11.0342C19.8298 11.0342 21.5936 11.7648 22.894 13.0652C24.1945 14.3657 24.9251 16.1295 24.9251 17.9687C24.9251 19.8078 24.1945 21.5716 22.894 22.8721C21.5936 24.1726 19.8298 24.9032 17.9906 24.9032ZM25.2011 12.3947C24.9887 12.3949 24.7784 12.3532 24.5821 12.272C24.3858 12.1908 24.2075 12.0717 24.0573 11.9215C23.9071 11.7713 23.788 11.593 23.7068 11.3967C23.6256 11.2004 23.5839 10.9901 23.5841 10.7777C23.5841 10.5654 23.6259 10.3553 23.7071 10.1592C23.7884 9.96308 23.9074 9.7849 24.0575 9.63482C24.2076 9.48474 24.3858 9.36568 24.5819 9.28446C24.7779 9.20324 24.9881 9.16143 25.2004 9.16143C25.4126 9.16143 25.6228 9.20324 25.8189 9.28446C26.015 9.36568 26.1931 9.48474 26.3432 9.63482C26.4933 9.7849 26.6124 9.96308 26.6936 10.1592C26.7748 10.3553 26.8166 10.5654 26.8166 10.7777C26.8166 11.6717 26.0936 12.3947 25.2011 12.3947Z" fill="#B4A186"/>
<path d="M17.9908 22.4729C20.4786 22.4729 22.4953 20.4561 22.4953 17.9684C22.4953 15.4806 20.4786 13.4639 17.9908 13.4639C15.5031 13.4639 13.4863 15.4806 13.4863 17.9684C13.4863 20.4561 15.5031 22.4729 17.9908 22.4729Z" fill="#B4A186"/>
</svg>
