<svg width="36" height="27" viewBox="0 0 36 27" fill="none" xmlns="http://www.w3.org/2000/svg">
<path fill-rule="evenodd" clip-rule="evenodd" d="M32.4 0H3.6C1.61177 0 0 1.51104 0 3.375V23.625C0 25.489 1.61177 27 3.6 27H32.4C34.3882 27 36 25.489 36 23.625V3.375C36 1.51104 34.3882 0 32.4 0ZM32.4005 3.37537V8.2691L19.1705 16.9597C18.4669 17.4175 17.5341 17.4175 16.8305 16.9597L3.60055 8.2691V3.37537H32.4005ZM3.60055 11.8129V23.6253H32.4005V11.8129L20.9705 19.3053C19.1868 20.4742 16.8142 20.4742 15.0305 19.3053L3.60055 11.8129Z" fill="#707070"/>
</svg>
