<svg width="29" height="29" viewBox="0 0 29 29" fill="none" xmlns="http://www.w3.org/2000/svg">
<path fill-rule="evenodd" clip-rule="evenodd" d="M14.5 2.8125C8.05538 2.8125 2.8125 8.05538 2.8125 14.5C2.8125 20.9446 8.05538 26.1875 14.5 26.1875C20.9446 26.1875 26.1875 20.9446 26.1875 14.5C26.1875 8.05538 20.9446 2.8125 14.5 2.8125ZM14.5 28.25C6.91825 28.25 0.75 22.0817 0.75 14.5C0.75 6.91825 6.91825 0.75 14.5 0.75C22.0817 0.75 28.25 6.91825 28.25 14.5C28.25 22.0817 22.0817 28.25 14.5 28.25Z" fill="#A18A68"/>
<path fill-rule="evenodd" clip-rule="evenodd" d="M14.4998 18.3416C14.2262 18.3416 13.9622 18.233 13.7697 18.0378L8.99707 13.2445C8.5942 12.8403 8.59695 12.1871 8.99982 11.7856C9.40407 11.3841 10.0572 11.3841 10.4587 11.7884L14.4998 15.8501L18.5423 11.7884C18.9438 11.3841 19.5969 11.3841 20.0012 11.7856C20.4041 12.1871 20.4054 12.8403 20.0039 13.2445L15.2299 18.0378C15.0374 18.233 14.7734 18.3416 14.4998 18.3416Z" fill="#A18A68"/>
</svg>
