<svg viewBox="0 0 28 29" fill="none" xmlns="http://www.w3.org/2000/svg">
<path fill-rule="evenodd" clip-rule="evenodd" d="M21.322 19.469L27.1806 25.4073C27.4422 25.7019 27.4294 26.1529 27.1513 26.4317L26.1261 27.4709C25.9886 27.6114 25.8014 27.6905 25.6061 27.6905C25.4108 27.6905 25.2237 27.6114 25.0862 27.4709L19.2276 21.5325C19.0655 21.3682 18.9185 21.1893 18.7882 20.9981L17.6897 19.5135C15.8721 20.9846 13.6151 21.7856 11.2892 21.7849C6.49625 21.8018 2.3314 18.4505 1.26031 13.7152C0.18922 8.97987 2.49776 4.12425 6.8192 2.02301C11.1406 -0.0782331 16.3217 1.1357 19.2949 4.94611C22.2682 8.75653 22.2402 14.1465 19.2276 17.925L20.6922 18.9494C20.9209 19.0977 21.1322 19.2721 21.322 19.469ZM3.96619 11.3924C3.96619 15.492 7.24491 18.8154 11.2894 18.8154C13.2317 18.8154 15.0944 18.0333 16.4677 16.6412C17.8411 15.2492 18.6127 13.3611 18.6127 11.3924C18.6127 7.29282 15.3339 3.96944 11.2894 3.96944C7.24491 3.96944 3.96619 7.29282 3.96619 11.3924Z" fill="black"/>
<path d="M27.1806 25.4073L27.461 25.1583L27.4545 25.151L27.4476 25.144L27.1806 25.4073ZM21.322 19.469L21.052 19.7292L21.0551 19.7323L21.322 19.469ZM27.1513 26.4317L26.8858 26.1669L26.8844 26.1683L27.1513 26.4317ZM26.1261 27.4709L25.8591 27.2075L25.858 27.2086L26.1261 27.4709ZM25.0862 27.4709L25.3542 27.2086L25.3531 27.2075L25.0862 27.4709ZM19.2276 21.5325L18.9605 21.7958L18.9606 21.7959L19.2276 21.5325ZM18.7882 20.9981L19.098 20.7869L19.0939 20.7809L19.0896 20.775L18.7882 20.9981ZM17.6897 19.5135L17.9911 19.2904L17.7582 18.9756L17.4538 19.222L17.6897 19.5135ZM11.2892 21.7849L11.2893 21.4099L11.2878 21.4099L11.2892 21.7849ZM1.26031 13.7152L0.894549 13.7979H0.894549L1.26031 13.7152ZM6.8192 2.02301L6.65521 1.68576L6.8192 2.02301ZM19.2949 4.94611L19.5906 4.71542V4.71542L19.2949 4.94611ZM19.2276 17.925L18.9344 17.6912L18.6854 18.0034L19.0126 18.2323L19.2276 17.925ZM20.6922 18.9494L20.4772 19.2568L20.4881 19.2639L20.6922 18.9494ZM16.4677 16.6412L16.2008 16.3779L16.4677 16.6412ZM27.4476 25.144L21.589 19.2056L21.0551 19.7323L26.9137 25.6707L27.4476 25.144ZM27.4168 26.6965C27.8351 26.2772 27.8541 25.601 27.461 25.1583L26.9002 25.6563C27.0303 25.8029 27.0236 26.0287 26.8858 26.1669L27.4168 26.6965ZM26.393 27.7343L27.4183 26.6951L26.8844 26.1683L25.8591 27.2075L26.393 27.7343ZM25.6061 28.0655C25.903 28.0655 26.1866 27.9452 26.3941 27.7332L25.858 27.2086C25.7905 27.2776 25.6997 27.3155 25.6061 27.3155V28.0655ZM24.8181 27.7332C25.0256 27.9452 25.3092 28.0655 25.6061 28.0655V27.3155C25.5125 27.3155 25.4217 27.2776 25.3542 27.2086L24.8181 27.7332ZM18.9606 21.7959L24.8192 27.7343L25.3531 27.2075L19.4945 21.2692L18.9606 21.7959ZM18.4783 21.2093C18.6212 21.419 18.7826 21.6153 18.9605 21.7958L19.4946 21.2693C19.3484 21.121 19.2157 20.9595 19.098 20.7869L18.4783 21.2093ZM17.3882 19.7365L18.4867 21.2211L19.0896 20.775L17.9911 19.2904L17.3882 19.7365ZM11.289 22.1599C13.7014 22.1606 16.0417 21.3299 17.9256 19.805L17.4538 19.222C15.7026 20.6394 13.5288 21.4106 11.2893 21.4099L11.289 22.1599ZM0.894549 13.7979C2.00367 18.7014 6.31856 22.1774 11.2905 22.1599L11.2878 21.4099C6.67395 21.4262 2.65912 18.1996 1.62607 13.6325L0.894549 13.7979ZM6.65521 1.68576C2.17482 3.86429 -0.214385 8.89528 0.894549 13.7979L1.62607 13.6325C0.592826 9.06445 2.82069 4.3842 6.98318 2.36025L6.65521 1.68576ZM19.5906 4.71542C16.5094 0.766671 11.1372 -0.493527 6.65521 1.68576L6.98318 2.36025C11.1441 0.337061 16.1339 1.50472 18.9993 5.1768L19.5906 4.71542ZM19.5208 18.1588C22.6416 14.2446 22.6705 8.66256 19.5906 4.71542L18.9993 5.1768C21.8659 8.85049 21.8389 14.0484 18.9344 17.6912L19.5208 18.1588ZM20.9071 18.6421L19.4425 17.6177L19.0126 18.2323L20.4773 19.2566L20.9071 18.6421ZM21.592 19.2087C21.3825 18.9913 21.1491 18.7987 20.8963 18.6348L20.4881 19.2639C20.6928 19.3967 20.882 19.5528 21.052 19.7292L21.592 19.2087ZM11.2894 18.4404C7.45679 18.4404 4.34119 15.2897 4.34119 11.3924H3.59119C3.59119 15.6943 7.03304 19.1904 11.2894 19.1904V18.4404ZM16.2008 16.3779C14.8973 17.6991 13.1306 18.4404 11.2894 18.4404V19.1904C13.3328 19.1904 15.2914 18.3675 16.7347 16.9046L16.2008 16.3779ZM18.2377 11.3924C18.2377 13.2633 17.5044 15.0565 16.2008 16.3779L16.7347 16.9046C18.1778 15.4418 18.9877 13.4589 18.9877 11.3924H18.2377ZM11.2894 4.34444C15.1221 4.34444 18.2377 7.49513 18.2377 11.3924H18.9877C18.9877 7.09051 15.5458 3.59444 11.2894 3.59444V4.34444ZM4.34119 11.3924C4.34119 7.49513 7.45679 4.34444 11.2894 4.34444V3.59444C7.03304 3.59444 3.59119 7.09051 3.59119 11.3924H4.34119Z" fill="white"/>
</svg>
