<svg width="26" height="23" viewBox="0 0 26 23" fill="none" xmlns="http://www.w3.org/2000/svg">
<path d="M23.4677 5.0986C23.1264 4.29655 22.6342 3.56975 22.0187 2.95886C21.4028 2.34616 20.6766 1.85925 19.8796 1.52462C19.0532 1.17624 18.1668 0.997928 17.2719 1.00002C16.0164 1.00002 14.7915 1.34889 13.727 2.00787C13.4724 2.1655 13.2305 2.33865 13.0013 2.5273C12.7721 2.33865 12.5301 2.1655 12.2755 2.00787C11.211 1.34889 9.9861 1.00002 8.73063 1.00002C7.82659 1.00002 6.95057 1.17575 6.12293 1.52462C5.3233 1.86057 4.60261 2.34382 3.98379 2.95886C3.36751 3.56906 2.87521 4.29604 2.53478 5.0986C2.18081 5.93331 2 6.8197 2 7.73193C2 8.59248 2.17317 9.4892 2.51696 10.4014C2.80472 11.1638 3.21727 11.9546 3.74441 12.7531C4.57969 14.0168 5.7282 15.3347 7.15429 16.6708C9.51753 18.8855 11.8578 20.4153 11.9572 20.4773L12.5607 20.8701C12.8281 21.0433 13.1719 21.0433 13.4393 20.8701L14.0428 20.4773C14.1421 20.4127 16.4799 18.8855 18.8457 16.6708C20.2718 15.3347 21.4203 14.0168 22.2556 12.7531C22.7827 11.9546 23.1978 11.1638 23.483 10.4014C23.8268 9.4892 24 8.59248 24 7.73193C24.0025 6.8197 23.8217 5.93331 23.4677 5.0986Z" fill="#A18A68"/>
<path d="M11.8891 21.93C12.1876 22.2389 12.5889 22.4111 13.0098 22.4111C13.4258 22.4111 13.8369 22.2338 14.1305 21.93L22.925 12.8295C24.261 11.447 24.9951 9.60871 25 7.65898C25 5.70419 24.2659 3.86588 22.9299 2.48335C21.5938 1.10082 19.8222 0.341183 17.9331 0.341183C16.0783 0.341183 14.3312 1.0755 13.0049 2.41245C11.6737 1.07043 9.9217 0.331055 8.06199 0.331055C6.17781 0.331055 4.4062 1.09069 3.07015 2.46816C1.73409 3.85069 1 5.689 1 7.64379C1 9.59351 1.73899 11.4318 3.07504 12.8144L11.8891 21.93ZM3.9217 3.34933C5.02773 2.20482 6.50082 1.57179 8.06688 1.57179C9.63295 1.57179 11.1109 2.20482 12.2219 3.35439L12.584 3.72915C12.6966 3.84562 12.8483 3.91146 13.0098 3.91146C13.1664 3.91146 13.323 3.84562 13.4356 3.72915L13.7879 3.36452C14.8989 2.21494 16.3719 1.58192 17.9429 1.58192C19.509 1.58192 20.9821 2.21494 22.0881 3.35946C23.199 4.50904 23.8059 6.03337 23.8059 7.65392C23.8059 9.27447 23.1941 10.7988 22.0832 11.9484L13.2839 21.0538C13.1419 21.2007 12.8825 21.2007 12.7357 21.0538L3.92659 11.9382C2.81566 10.7887 2.20392 9.26434 2.20392 7.64379C2.20392 6.02324 2.81566 4.49891 3.9217 3.34933Z" fill="black" stroke="black" stroke-width="0.3"/>
</svg>
