<svg width="36" height="30" viewBox="0 0 36 30" fill="none" xmlns="http://www.w3.org/2000/svg">
<path d="M35.1246 4.34785C34.2215 5.56258 33.1299 6.62221 31.892 7.4858C31.892 7.80312 31.892 8.12044 31.892 8.45539C31.9019 14.2179 29.6193 19.7434 25.5559 23.7932C21.4925 27.8429 15.9882 30.0782 10.277 29.9979C6.9752 30.009 3.7157 29.2488 0.753809 27.7767C0.594104 27.7063 0.491096 27.547 0.491703 27.3712V27.1773C0.491703 26.9241 0.695107 26.7189 0.946019 26.7189C4.19159 26.6111 7.32138 25.4763 9.89256 23.4752C6.95487 23.4156 4.31169 21.6606 3.09529 18.9622C3.03384 18.8148 3.05297 18.6458 3.14577 18.5162C3.23856 18.3865 3.3916 18.3151 3.5496 18.3276C4.44243 18.4181 5.34418 18.3343 6.20561 18.0808C2.96264 17.4019 0.525911 14.687 0.177176 11.3642C0.164782 11.2048 0.235621 11.0504 0.364103 10.9567C0.492585 10.8631 0.660137 10.8438 0.80623 10.9058C1.6765 11.293 2.61596 11.497 3.56708 11.5052C0.725467 9.62443 -0.501919 6.04715 0.579072 2.79651C0.690655 2.48064 0.958735 2.2473 1.2848 2.18223C1.61086 2.11716 1.9468 2.22996 2.16918 2.47919C6.00375 6.59462 11.2725 9.04698 16.8646 9.3192C16.7213 8.74283 16.6509 8.15051 16.6549 7.55631C16.7072 4.44063 18.6189 1.66512 21.4951 0.529166C24.3712 -0.606787 27.6426 0.121636 29.7776 2.37342C31.233 2.09383 32.64 1.60088 33.9539 0.910216C34.0501 0.849624 34.1721 0.849624 34.2684 0.910216C34.3284 1.00731 34.3284 1.13044 34.2684 1.22754C33.632 2.69709 32.5569 3.92964 31.193 4.75332C32.3873 4.61365 33.5607 4.32955 34.6878 3.90713C34.7827 3.84199 34.9074 3.84199 35.0023 3.90713C35.0818 3.94381 35.1412 4.01394 35.1648 4.09886C35.1883 4.18378 35.1736 4.27486 35.1246 4.34785Z" fill="#707070"/>
</svg>
