<svg viewBox="0 0 30 30" fill="none" xmlns="http://www.w3.org/2000/svg">
<path fill-rule="evenodd" clip-rule="evenodd" d="M22.0632 8.02381C22.0632 11.903 18.9555 15.0476 15.122 15.0476C11.2885 15.0476 8.18079 11.903 8.18079 8.02381C8.18079 4.14467 11.2885 1 15.122 1C18.9555 1 22.0632 4.14467 22.0632 8.02381ZM19.2867 8.02379C19.2867 5.69631 17.4221 3.80951 15.122 3.80951C12.8219 3.80951 10.9573 5.69631 10.9573 8.02379C10.9573 10.3513 12.8219 12.2381 15.122 12.2381C17.4221 12.2381 19.2867 10.3513 19.2867 8.02379ZM28.8516 27.0583L26.2278 21.7343C25.051 19.3578 22.6492 17.8572 20.0224 17.8571H10.2214C7.59453 17.8572 5.19277 19.3578 4.01594 21.7343L1.39216 27.0583C1.17564 27.4931 1.19705 28.0104 1.44875 28.4253C1.70045 28.8403 2.14654 29.0937 2.6277 29.0952H27.6161C28.0972 29.0937 28.5433 28.8403 28.795 28.4253C29.0467 28.0104 29.0681 27.4931 28.8516 27.0583ZM6.50096 22.9985L4.87671 26.2857H25.3673L23.7431 22.9985C23.0389 21.5714 21.5989 20.6688 20.0225 20.6666H10.2215C8.64512 20.6688 7.20507 21.5714 6.50096 22.9985Z" fill="black"/>
<path d="M26.2278 21.7343L26.6763 21.5132L26.6759 21.5124L26.2278 21.7343ZM28.8516 27.0583L28.4031 27.2793L28.404 27.2812L28.8516 27.0583ZM20.0224 17.8571L20.0224 17.3571H20.0224V17.8571ZM10.2214 17.8571V17.3571H10.2214L10.2214 17.8571ZM4.01594 21.7343L3.56787 21.5124L3.56744 21.5132L4.01594 21.7343ZM1.39216 27.0583L1.83974 27.2812L1.84065 27.2793L1.39216 27.0583ZM1.44875 28.4253L1.02125 28.6846H1.02125L1.44875 28.4253ZM2.6277 29.0952L2.62616 29.5952H2.6277V29.0952ZM27.6161 29.0952V29.5952L27.6176 29.5952L27.6161 29.0952ZM28.795 28.4253L29.2225 28.6846L29.2225 28.6846L28.795 28.4253ZM4.87671 26.2857L4.42845 26.0642L4.07194 26.7857H4.87671V26.2857ZM6.50096 22.9985L6.94923 23.22L6.94936 23.2198L6.50096 22.9985ZM25.3673 26.2857V26.7857H26.1721L25.8156 26.0642L25.3673 26.2857ZM23.7431 22.9985L23.2947 23.2198L23.2948 23.22L23.7431 22.9985ZM20.0225 20.6666L20.0232 20.1666H20.0225V20.6666ZM10.2215 20.6666V20.1666H10.2208L10.2215 20.6666ZM15.122 15.5476C19.2372 15.5476 22.5632 12.1735 22.5632 8.02381H21.5632C21.5632 11.6324 18.6738 14.5476 15.122 14.5476V15.5476ZM7.68079 8.02381C7.68079 12.1735 11.0068 15.5476 15.122 15.5476V14.5476C11.5702 14.5476 8.68079 11.6324 8.68079 8.02381H7.68079ZM15.122 0.5C11.0068 0.5 7.68079 3.87412 7.68079 8.02381H8.68079C8.68079 4.41522 11.5702 1.5 15.122 1.5V0.5ZM22.5632 8.02381C22.5632 3.87412 19.2372 0.5 15.122 0.5V1.5C18.6738 1.5 21.5632 4.41522 21.5632 8.02381H22.5632ZM15.122 4.30951C17.1404 4.30951 18.7867 5.96686 18.7867 8.02379H19.7867C19.7867 5.42576 17.7038 3.30951 15.122 3.30951V4.30951ZM11.4573 8.02379C11.4573 5.96686 13.1036 4.30951 15.122 4.30951V3.30951C12.5402 3.30951 10.4573 5.42576 10.4573 8.02379H11.4573ZM15.122 11.7381C13.1036 11.7381 11.4573 10.0807 11.4573 8.02379H10.4573C10.4573 10.6218 12.5402 12.7381 15.122 12.7381V11.7381ZM18.7867 8.02379C18.7867 10.0807 17.1404 11.7381 15.122 11.7381V12.7381C17.7038 12.7381 19.7867 10.6218 19.7867 8.02379H18.7867ZM25.7793 21.9553L28.4031 27.2793L29.3001 26.8373L26.6763 21.5132L25.7793 21.9553ZM20.0224 18.3571C22.4569 18.3572 24.6863 19.748 25.7798 21.9562L26.6759 21.5124C25.4157 18.9677 22.8416 17.3572 20.0224 17.3571L20.0224 18.3571ZM10.2214 18.3571H20.0224V17.3571H10.2214V18.3571ZM4.46401 21.9562C5.55752 19.748 7.78692 18.3572 10.2214 18.3571L10.2214 17.3571C7.40214 17.3572 4.82802 18.9677 3.56787 21.5124L4.46401 21.9562ZM1.84065 27.2793L4.46443 21.9553L3.56744 21.5132L0.943664 26.8373L1.84065 27.2793ZM1.87625 28.166C1.71359 27.8979 1.69959 27.5626 1.83973 27.2812L0.944585 26.8354C0.651682 27.4236 0.680502 28.1229 1.02125 28.6846L1.87625 28.166ZM2.62923 28.5952C2.32414 28.5943 2.03855 28.4336 1.87625 28.166L1.02125 28.6846C1.36235 29.247 1.96894 29.5932 2.62616 29.5952L2.62923 28.5952ZM27.6161 28.5952H2.6277V29.5952H27.6161V28.5952ZM28.3675 28.166C28.2052 28.4336 27.9196 28.5943 27.6145 28.5952L27.6176 29.5952C28.2748 29.5932 28.8814 29.247 29.2225 28.6846L28.3675 28.166ZM28.404 27.2812C28.5442 27.5626 28.5302 27.8979 28.3675 28.166L29.2225 28.6846C29.5633 28.1229 29.5921 27.4236 29.2992 26.8354L28.404 27.2812ZM5.32497 26.5072L6.94923 23.22L6.0527 22.777L4.42845 26.0642L5.32497 26.5072ZM25.3673 25.7857H4.87671V26.7857H25.3673V25.7857ZM23.2948 23.22L24.919 26.5072L25.8156 26.0642L24.1913 22.777L23.2948 23.22ZM20.0218 21.1666C21.4058 21.1686 22.6736 21.961 23.2947 23.2198L24.1915 22.7773C23.4043 21.1818 21.792 20.1691 20.0232 20.1666L20.0218 21.1666ZM10.2215 21.1666H20.0225V20.1666H10.2215V21.1666ZM6.94936 23.2198C7.57038 21.961 8.83821 21.1686 10.2222 21.1666L10.2208 20.1666C8.45203 20.1691 6.83976 21.1818 6.05257 22.7773L6.94936 23.2198Z" fill="white"/>
</svg>
