<svg width="26" height="26" viewBox="0 0 26 26" fill="none" xmlns="http://www.w3.org/2000/svg">
<g clip-path="url(#clip0_70_1160)">
<path d="M16.989 0H9.00786C1.72461 0 -0.00195312 1.72656 -0.00195312 9.00981V16.991C-0.00195312 24.2743 1.72461 26.0008 9.00786 26.0008H16.989C24.2723 26.0008 25.9989 24.2743 25.9989 16.991V9.00981C25.9989 1.72656 24.2552 0 16.989 0ZM20.9882 18.5477H19.1007C18.3857 18.5477 18.1655 17.9806 16.8794 16.6774C15.7622 15.5943 15.2674 15.4505 14.9919 15.4505C14.6027 15.4505 14.4922 15.5602 14.4922 16.094V17.7994C14.4922 18.2569 14.3484 18.5315 13.1378 18.5315C11.1358 18.5315 8.91442 17.3209 7.35686 15.0654C5.00792 11.7601 4.36523 9.28444 4.36523 8.77256C4.36523 8.49712 4.47492 8.23956 5.00386 8.23956H6.89536C7.37392 8.23956 7.55592 8.45975 7.74198 8.97162C8.67717 11.6716 10.2347 14.0367 10.8774 14.0367C11.1147 14.0367 11.2244 13.9271 11.2244 13.3217V10.5332C11.152 9.24706 10.4752 9.13656 10.4752 8.67994C10.4752 8.45975 10.6572 8.23956 10.9489 8.23956H13.9235C14.3257 8.23956 14.4735 8.45975 14.4735 8.93344V12.6953C14.4735 13.1016 14.6555 13.2454 14.7652 13.2454C15.0025 13.2454 15.2056 13.1016 15.6452 12.6612C17.0037 11.1378 17.977 8.78881 17.977 8.78881C18.1038 8.51338 18.324 8.25581 18.8025 8.25581H20.694C21.2612 8.25581 21.3879 8.5475 21.2612 8.95375C21.0239 10.0539 18.7091 13.3209 18.7091 13.3209C18.51 13.6508 18.4337 13.7946 18.7091 14.1627C18.9122 14.4381 19.5728 15.0093 20.0124 15.5212C20.8208 16.4393 21.4424 17.2096 21.6081 17.7426C21.7942 18.2715 21.5195 18.5469 20.9857 18.5469L20.9882 18.5477Z" fill="#B4A186"/>
</g>
<defs>
<clipPath id="clip0_70_1160">
<rect width="26" height="26" fill="white"/>
</clipPath>
</defs>
</svg>
